<svg width="18" height="18" viewBox="0 0 18 18" fill="none" xmlns="http://www.w3.org/2000/svg">
<path d="M9 11.6902L3.29283 17.413C2.93152 17.7717 2.47239 17.9511 1.91543 17.9511C1.35848 17.9511 0.899348 17.7717 0.538044 17.413C0.179348 17.0543 0 16.5978 0 16.0435C0 15.4891 0.179348 15.0326 0.538044 14.6739L6.26087 8.95109L0.538044 3.29283C0.179348 2.93152 0 2.47239 0 1.91543C0 1.35848 0.179348 0.899347 0.538044 0.538043C0.896739 0.179347 1.35326 0 1.90761 0C2.46196 0 2.91848 0.179347 3.27717 0.538043L9 6.26087L14.6583 0.538043C15.0196 0.179347 15.4787 0 16.0357 0C16.5926 0 17.0517 0.179347 17.413 0.538043C17.8043 0.929347 18 1.39435 18 1.93304C18 2.47174 17.8043 2.91978 17.413 3.27717L11.6902 8.95109L17.413 14.6583C17.7717 15.0196 17.9511 15.4787 17.9511 16.0357C17.9511 16.5926 17.7717 17.0517 17.413 17.413C17.0217 17.8043 16.5574 18 16.02 18C15.4826 18 15.0339 17.8043 14.6739 17.413L9 11.6902Z" fill="#828FFF"/>
</svg>
