<svg width="24" height="18" viewBox="0 0 24 18" fill="none" xmlns="http://www.w3.org/2000/svg">
<path d="M6 18C4.34545 18 2.932 17.4094 1.75964 16.2281C0.587273 15.0469 0.000727273 13.6031 0 11.8969C0 10.4344 0.427273 9.13125 1.28182 7.9875C2.13636 6.84375 3.25455 6.1125 4.63636 5.79375C5.09091 4.06875 6 2.67188 7.36364 1.60313C8.72727 0.534375 10.2727 0 12 0C14.1273 0 15.932 0.76425 17.4142 2.29275C18.8964 3.82125 19.6371 5.682 19.6364 7.875C20.8909 8.025 21.932 8.583 22.7596 9.549C23.5873 10.515 24.0007 11.6445 24 12.9375C24 14.3438 23.5229 15.5392 22.5687 16.524C21.6145 17.5087 20.4553 18.0007 19.0909 18H6Z" fill="#828FFF"/>
</svg>
