<svg width="16" height="18" viewBox="0 0 16 18" fill="none" xmlns="http://www.w3.org/2000/svg">
<path d="M1.5 15.75C1.5 16.9875 2.52857 18 3.78571 18H12.2143C13.4714 18 14.5 16.9875 14.5 15.75V6.1875C14.5 4.5 14.5 4.5 12.7857 4.5H3.21429C1.5 4.5 1.5 4.5 1.5 6.1875V15.75ZM14.8571 0.875H12L11.1886 0.32625C10.9829 0.12375 10.6857 0 10.3886 0H5.61143C5.31429 0 5.01714 0.12375 4.81143 0.32625L4 0.875H1.14286C0.514286 0.875 0 1.38125 0 2C0 2.61875 0.514286 3.125 1.14286 3.125H14.8571C15.4857 3.125 16 2.61875 16 2C16 1.38125 15.4857 0.875 14.8571 0.875Z" fill="#828FFF"/>
</svg>
