<svg width="15" height="18" viewBox="0 0 15 18" fill="none" xmlns="http://www.w3.org/2000/svg">
<path d="M12.418 6.35294H10.7144V1.05882C10.7144 0.476471 10.2322 0 9.64296 0H5.35725C4.76796 0 4.28582 0.476471 4.28582 1.05882V6.35294H2.58225C1.62868 6.35294 1.14653 7.49647 1.82153 8.16353L6.73939 13.0235C7.15725 13.4365 7.83225 13.4365 8.2501 13.0235L13.168 8.16353C13.843 7.49647 13.3715 6.35294 12.418 6.35294ZM0 16.5C0 17.5 0.928466 18 1.5 18H13.5C14.0893 18 15 17.5 15 16.5C15 15.5 14.0893 15 13.5 15H1.57143C0.928466 15 0 15.5 0 16.5Z" fill="#828FFF"/>
</svg>
