<svg width="18" height="18" viewBox="0 0 18 18" fill="none" xmlns="http://www.w3.org/2000/svg">
<path fill-rule="evenodd" clip-rule="evenodd" d="M10.6 1.60537C10.6 0.721716 9.88366 0.00537109 9 0.00537109C8.11634 0.00537109 7.4 0.721716 7.4 1.60537V3.5H2C0.895431 3.5 0 4.39543 0 5.5V16.0001C0 17.1047 0.89543 18.0001 2 18.0001H16C17.1046 18.0001 18 17.1047 18 16.0001V5.5C18 4.39543 17.1046 3.5 16 3.5H10.6V1.60537ZM10.6 3.5H7.4V9.26575C7.4 9.44965 7.1727 9.53607 7.05052 9.39862L6.19586 8.43712C5.60879 7.77667 4.59747 7.71718 3.93702 8.30425C3.27657 8.89132 3.21708 9.90263 3.80414 10.5631L7.80414 15.0631C8.10777 15.4047 8.54298 15.6001 9 15.6001C9.45702 15.6001 9.89223 15.4047 10.1959 15.0631L14.1959 10.5631C14.7829 9.90263 14.7234 8.89132 14.063 8.30425C13.4025 7.71718 12.3912 7.77667 11.8041 8.43712L10.9495 9.39862C10.8273 9.53607 10.6 9.44965 10.6 9.26575V3.5Z" fill="#828FFF"/>
</svg>
