<svg width="16" height="18" viewBox="0 0 16 18" fill="none" xmlns="http://www.w3.org/2000/svg">
<path fill-rule="evenodd" clip-rule="evenodd" d="M0.993 0C0.445 0 0 0.445 0 0.993V17.007C0 17.2704 0.104619 17.5229 0.290843 17.7092C0.477067 17.8954 0.72964 18 0.993 18H15.007C15.2703 17.9997 15.5227 17.895 15.7089 17.7089C15.895 17.5227 15.9997 17.2703 16 17.007V6.61432C16 6.2165 15.842 5.83496 15.5607 5.55366L10.4463 0.43934C10.165 0.158035 9.7835 0 9.38568 0H0.993ZM8.57409 1.94636C8.64636 1.94991 8.7163 1.97298 8.77649 2.01314L13.501 6.667C13.5559 6.70351 13.6009 6.75302 13.632 6.81111C13.6631 6.86921 13.6794 6.93409 13.6794 7C13.6794 7.06591 13.6631 7.13079 13.632 7.18889C13.6009 7.24698 13.5559 7.29649 13.501 7.333H8.75449C8.42312 7.333 8.15449 7.06437 8.15449 6.733V2.34514C8.15462 2.27279 8.17438 2.20183 8.21165 2.13982C8.24892 2.07781 8.30231 2.02707 8.36613 1.993C8.42996 1.95893 8.50183 1.94281 8.57409 1.94636Z" fill="#828FFF"/>
</svg>
