<svg width="20" height="18" viewBox="0 0 20 18" fill="none" xmlns="http://www.w3.org/2000/svg">
<path d="M2.31 18C1.67475 18 1.13113 17.7799 0.67914 17.3396C0.22715 16.8994 0.00077 16.3695 0 15.75V2.25C0 1.63125 0.22638 1.10175 0.67914 0.6615C1.1319 0.22125 1.67552 0.00075 2.31 0L8.3264 -1.07206e-06C8.75486 -1.14841e-06 9.16286 0.183221 9.44751 0.503453L10.5525 1.74655C10.8371 2.06678 11.2451 2.25 11.6736 2.25L17.69 2.25C18.3253 2.25 18.8693 2.4705 19.322 2.9115C19.7748 3.3525 20.0008 3.882 20 4.5V15.75C20 16.3687 19.774 16.8986 19.322 17.3396C18.87 17.7806 18.326 18.0007 17.69 18H2.31Z" fill="#828FFF"/>
</svg>
