<svg width="18" height="18" viewBox="0 0 18 18" fill="none" xmlns="http://www.w3.org/2000/svg">
<path d="M2 18C1.45 18 0.979333 17.8043 0.588 17.413C0.196667 17.0217 0.000666667 16.5507 0 16V2C0 1.45 0.196 0.979333 0.588 0.588C0.98 0.196667 1.45067 0.000666667 2 0H16C16.55 0 17.021 0.196 17.413 0.588C17.805 0.98 18.0007 1.45067 18 2V16C18 16.55 17.8043 17.021 17.413 17.413C17.0217 17.805 16.5507 18.0007 16 18H2ZM3.6 13.2C3.35279 13.5296 3.58798 14 4 14H14C14.412 14 14.6472 13.5296 14.4 13.2L11.65 9.53333C11.45 9.26667 11.05 9.26667 10.85 9.53333L8.65 12.4667C8.45 12.7333 8.05 12.7333 7.85 12.4667L6.4 10.5333C6.2 10.2667 5.8 10.2667 5.6 10.5333L3.6 13.2Z" fill="#828FFF"/>
</svg>
